<svg xmlns="http://www.w3.org/2000/svg" viewBox="0 0 112 112">
  <style>
    g { fill: #1a1a2e; }
    @media (prefers-color-scheme: dark) {
      g { fill: #e8e8f0; }
    }
  </style>
  <g>
    <rect x="20" y="11" width="10" height="16"/>
    <rect x="30" y="11" width="10" height="16"/>
    <rect x="40" y="11" width="10" height="16"/>
    <rect x="50" y="11" width="10" height="16"/>
    <rect x="60" y="11" width="10" height="16"/>
    <rect x="70" y="11" width="10" height="16"/>
    <rect x="80.00" y="17.72" width="6.10" height="2.56"/><rect x="83.90" y="17.72" width="2.20" height="9.28"/>
    <rect x="20" y="27" width="10" height="16"/>
    <rect x="30" y="27" width="10" height="16"/>
    <rect x="43.90" y="33.72" width="6.10" height="2.56"/><rect x="43.90" y="33.72" width="2.20" height="9.28"/>
    <rect x="50.00" y="33.72" width="10.00" height="2.56"/>
    <rect x="60.00" y="33.72" width="10.00" height="2.56"/>
    <rect x="70" y="27" width="10" height="16"/>
    <rect x="80" y="27" width="10" height="16"/>
    <rect x="90.00" y="33.72" width="6.10" height="2.56"/><rect x="93.90" y="33.72" width="2.20" height="9.28"/>
    <rect x="20" y="43" width="10" height="16"/>
    <rect x="30" y="43" width="10" height="16"/>
    <rect x="40" y="43" width="10" height="16"/>
    <rect x="50" y="43" width="10" height="16"/>
    <rect x="60" y="43" width="10" height="16"/>
    <rect x="70" y="43" width="10" height="16"/>
    <rect x="83.90" y="49.72" width="6.10" height="2.56"/><rect x="83.90" y="49.72" width="2.20" height="9.28"/>
    <rect x="90.00" y="49.72" width="6.10" height="2.56"/><rect x="93.90" y="43.00" width="2.20" height="9.28"/>
    <rect x="20" y="59" width="10" height="16"/>
    <rect x="30" y="59" width="10" height="16"/>
    <rect x="43.90" y="65.72" width="6.10" height="2.56"/><rect x="43.90" y="65.72" width="2.20" height="9.28"/>
    <rect x="50.00" y="65.72" width="10.00" height="2.56"/>
    <rect x="60.00" y="65.72" width="10.00" height="2.56"/>
    <rect x="70" y="59" width="10" height="16"/>
    <rect x="80" y="59" width="10" height="16"/>
    <rect x="90.00" y="65.72" width="6.10" height="2.56"/><rect x="93.90" y="65.72" width="2.20" height="9.28"/>
    <rect x="20" y="75" width="10" height="16"/>
    <rect x="30" y="75" width="10" height="16"/>
    <rect x="43.90" y="75.00" width="2.20" height="16.00"/>
    <rect x="70" y="75" width="10" height="16"/>
    <rect x="80" y="75" width="10" height="16"/>
    <rect x="93.90" y="75.00" width="2.20" height="16.00"/>
    <rect x="23.90" y="97.72" width="6.10" height="2.56"/><rect x="23.90" y="91.00" width="2.20" height="9.28"/>
    <rect x="30.00" y="97.72" width="10.00" height="2.56"/>
    <rect x="40.00" y="97.72" width="6.10" height="2.56"/><rect x="43.90" y="91.00" width="2.20" height="9.28"/>
    <rect x="73.90" y="97.72" width="6.10" height="2.56"/><rect x="73.90" y="91.00" width="2.20" height="9.28"/>
    <rect x="80.00" y="97.72" width="10.00" height="2.56"/>
    <rect x="90.00" y="97.72" width="6.10" height="2.56"/><rect x="93.90" y="91.00" width="2.20" height="9.28"/>
  </g>
</svg>
