<svg xmlns="http://www.w3.org/2000/svg" viewBox="0 0 112 112">
  <style>
    g { fill: #1a1a2e; }
    @media (prefers-color-scheme: dark) {
      g { fill: #e8e8f0; }
    }
  </style>
  <g>
    <rect x="16" y="11" width="10" height="16"/>
    <rect x="26" y="11" width="10" height="16"/>
    <rect x="36" y="11" width="10" height="16"/>
    <rect x="46" y="11" width="10" height="16"/>
    <rect x="56" y="11" width="10" height="16"/>
    <rect x="66" y="11" width="10" height="16"/>
    <rect x="76.00" y="17.72" width="6.10" height="2.56"/><rect x="79.90" y="17.72" width="2.20" height="9.28"/>
    <rect x="16" y="27" width="10" height="16"/>
    <rect x="26" y="27" width="10" height="16"/>
    <rect x="39.90" y="33.72" width="6.10" height="2.56"/><rect x="39.90" y="33.72" width="2.20" height="9.28"/>
    <rect x="46.00" y="33.72" width="10.00" height="2.56"/>
    <rect x="56.00" y="33.72" width="10.00" height="2.56"/>
    <rect x="66" y="27" width="10" height="16"/>
    <rect x="76" y="27" width="10" height="16"/>
    <rect x="86.00" y="33.72" width="6.10" height="2.56"/><rect x="89.90" y="33.72" width="2.20" height="9.28"/>
    <rect x="16" y="43" width="10" height="16"/>
    <rect x="26" y="43" width="10" height="16"/>
    <rect x="36" y="43" width="10" height="16"/>
    <rect x="46" y="43" width="10" height="16"/>
    <rect x="56" y="43" width="10" height="16"/>
    <rect x="66" y="43" width="10" height="16"/>
    <rect x="79.90" y="49.72" width="6.10" height="2.56"/><rect x="79.90" y="49.72" width="2.20" height="9.28"/>
    <rect x="86.00" y="49.72" width="6.10" height="2.56"/><rect x="89.90" y="43.00" width="2.20" height="9.28"/>
    <rect x="16" y="59" width="10" height="16"/>
    <rect x="26" y="59" width="10" height="16"/>
    <rect x="39.90" y="65.72" width="6.10" height="2.56"/><rect x="39.90" y="65.72" width="2.20" height="9.28"/>
    <rect x="46.00" y="65.72" width="10.00" height="2.56"/>
    <rect x="56.00" y="65.72" width="10.00" height="2.56"/>
    <rect x="66" y="59" width="10" height="16"/>
    <rect x="76" y="59" width="10" height="16"/>
    <rect x="86.00" y="65.72" width="6.10" height="2.56"/><rect x="89.90" y="65.72" width="2.20" height="9.28"/>
    <rect x="16" y="75" width="10" height="16"/>
    <rect x="26" y="75" width="10" height="16"/>
    <rect x="39.90" y="75.00" width="2.20" height="16.00"/>
    <rect x="66" y="75" width="10" height="16"/>
    <rect x="76" y="75" width="10" height="16"/>
    <rect x="89.90" y="75.00" width="2.20" height="16.00"/>
    <rect x="19.90" y="97.72" width="6.10" height="2.56"/><rect x="19.90" y="91.00" width="2.20" height="9.28"/>
    <rect x="26.00" y="97.72" width="10.00" height="2.56"/>
    <rect x="36.00" y="97.72" width="6.10" height="2.56"/><rect x="39.90" y="91.00" width="2.20" height="9.28"/>
    <rect x="69.90" y="97.72" width="6.10" height="2.56"/><rect x="69.90" y="91.00" width="2.20" height="9.28"/>
    <rect x="76.00" y="97.72" width="10.00" height="2.56"/>
    <rect x="86.00" y="97.72" width="6.10" height="2.56"/><rect x="89.90" y="91.00" width="2.20" height="9.28"/>
  </g>
</svg>
