<svg xmlns="http://www.w3.org/2000/svg" viewBox="0 0 434 116" role="img" aria-label="RUNE">
  <g fill="#1a1a2e">
    <rect x="12" y="13" width="10" height="16"/>
    <rect x="22" y="13" width="10" height="16"/>
    <rect x="32" y="13" width="10" height="16"/>
    <rect x="42" y="13" width="10" height="16"/>
    <rect x="52" y="13" width="10" height="16"/>
    <rect x="62" y="13" width="10" height="16"/>
    <rect x="72.00" y="19.72" width="6.10" height="2.56"/><rect x="75.90" y="19.72" width="2.20" height="9.28"/>
    <rect x="112" y="13" width="10" height="16"/>
    <rect x="122" y="13" width="10" height="16"/>
    <rect x="132.00" y="19.72" width="6.10" height="2.56"/><rect x="135.90" y="19.72" width="2.20" height="9.28"/>
    <rect x="172" y="13" width="10" height="16"/>
    <rect x="182" y="13" width="10" height="16"/>
    <rect x="192.00" y="19.72" width="6.10" height="2.56"/><rect x="195.90" y="19.72" width="2.20" height="9.28"/>
    <rect x="222" y="13" width="10" height="16"/>
    <rect x="232" y="13" width="10" height="16"/>
    <rect x="242" y="13" width="10" height="16"/>
    <rect x="252.00" y="19.72" width="6.10" height="2.56"/><rect x="255.90" y="19.72" width="2.20" height="9.28"/>
    <rect x="292" y="13" width="10" height="16"/>
    <rect x="302" y="13" width="10" height="16"/>
    <rect x="312.00" y="19.72" width="6.10" height="2.56"/><rect x="315.90" y="19.72" width="2.20" height="9.28"/>
    <rect x="342" y="13" width="10" height="16"/>
    <rect x="352" y="13" width="10" height="16"/>
    <rect x="362" y="13" width="10" height="16"/>
    <rect x="372" y="13" width="10" height="16"/>
    <rect x="382" y="13" width="10" height="16"/>
    <rect x="392" y="13" width="10" height="16"/>
    <rect x="402" y="13" width="10" height="16"/>
    <rect x="412.00" y="19.72" width="6.10" height="2.56"/><rect x="415.90" y="19.72" width="2.20" height="9.28"/>
    <rect x="12" y="29" width="10" height="16"/>
    <rect x="22" y="29" width="10" height="16"/>
    <rect x="35.90" y="35.72" width="6.10" height="2.56"/><rect x="35.90" y="35.72" width="2.20" height="9.28"/>
    <rect x="42.00" y="35.72" width="10.00" height="2.56"/>
    <rect x="52.00" y="35.72" width="10.00" height="2.56"/>
    <rect x="62" y="29" width="10" height="16"/>
    <rect x="72" y="29" width="10" height="16"/>
    <rect x="82.00" y="35.72" width="6.10" height="2.56"/><rect x="85.90" y="35.72" width="2.20" height="9.28"/>
    <rect x="112" y="29" width="10" height="16"/>
    <rect x="122" y="29" width="10" height="16"/>
    <rect x="135.90" y="29.00" width="2.20" height="16.00"/>
    <rect x="172" y="29" width="10" height="16"/>
    <rect x="182" y="29" width="10" height="16"/>
    <rect x="195.90" y="29.00" width="2.20" height="16.00"/>
    <rect x="222" y="29" width="10" height="16"/>
    <rect x="232" y="29" width="10" height="16"/>
    <rect x="242" y="29" width="10" height="16"/>
    <rect x="252" y="29" width="10" height="16"/>
    <rect x="262.00" y="35.72" width="6.10" height="2.56"/><rect x="265.90" y="35.72" width="2.20" height="9.28"/>
    <rect x="292" y="29" width="10" height="16"/>
    <rect x="302" y="29" width="10" height="16"/>
    <rect x="315.90" y="29.00" width="2.20" height="16.00"/>
    <rect x="342" y="29" width="10" height="16"/>
    <rect x="352" y="29" width="10" height="16"/>
    <rect x="365.90" y="35.72" width="6.10" height="2.56"/><rect x="365.90" y="35.72" width="2.20" height="9.28"/>
    <rect x="372.00" y="35.72" width="10.00" height="2.56"/>
    <rect x="382.00" y="35.72" width="10.00" height="2.56"/>
    <rect x="392.00" y="35.72" width="10.00" height="2.56"/>
    <rect x="402.00" y="35.72" width="10.00" height="2.56"/>
    <rect x="412.00" y="35.72" width="6.10" height="2.56"/><rect x="415.90" y="29.00" width="2.20" height="9.28"/>
    <rect x="12" y="45" width="10" height="16"/>
    <rect x="22" y="45" width="10" height="16"/>
    <rect x="32" y="45" width="10" height="16"/>
    <rect x="42" y="45" width="10" height="16"/>
    <rect x="52" y="45" width="10" height="16"/>
    <rect x="62" y="45" width="10" height="16"/>
    <rect x="75.90" y="51.72" width="6.10" height="2.56"/><rect x="75.90" y="51.72" width="2.20" height="9.28"/>
    <rect x="82.00" y="51.72" width="6.10" height="2.56"/><rect x="85.90" y="45.00" width="2.20" height="9.28"/>
    <rect x="112" y="45" width="10" height="16"/>
    <rect x="122" y="45" width="10" height="16"/>
    <rect x="135.90" y="45.00" width="2.20" height="16.00"/>
    <rect x="172" y="45" width="10" height="16"/>
    <rect x="182" y="45" width="10" height="16"/>
    <rect x="195.90" y="45.00" width="2.20" height="16.00"/>
    <rect x="222" y="45" width="10" height="16"/>
    <rect x="232" y="45" width="10" height="16"/>
    <rect x="245.90" y="51.72" width="6.10" height="2.56"/><rect x="245.90" y="51.72" width="2.20" height="9.28"/>
    <rect x="252" y="45" width="10" height="16"/>
    <rect x="262" y="45" width="10" height="16"/>
    <rect x="272.00" y="51.72" width="6.10" height="2.56"/><rect x="275.90" y="51.72" width="2.20" height="9.28"/>
    <rect x="292" y="45" width="10" height="16"/>
    <rect x="302" y="45" width="10" height="16"/>
    <rect x="315.90" y="45.00" width="2.20" height="16.00"/>
    <rect x="342" y="45" width="10" height="16"/>
    <rect x="352" y="45" width="10" height="16"/>
    <rect x="362" y="45" width="10" height="16"/>
    <rect x="372" y="45" width="10" height="16"/>
    <rect x="382" y="45" width="10" height="16"/>
    <rect x="392.00" y="51.72" width="6.10" height="2.56"/><rect x="395.90" y="51.72" width="2.20" height="9.28"/>
    <rect x="12" y="61" width="10" height="16"/>
    <rect x="22" y="61" width="10" height="16"/>
    <rect x="35.90" y="67.72" width="6.10" height="2.56"/><rect x="35.90" y="67.72" width="2.20" height="9.28"/>
    <rect x="42.00" y="67.72" width="10.00" height="2.56"/>
    <rect x="52.00" y="67.72" width="10.00" height="2.56"/>
    <rect x="62" y="61" width="10" height="16"/>
    <rect x="72" y="61" width="10" height="16"/>
    <rect x="82.00" y="67.72" width="6.10" height="2.56"/><rect x="85.90" y="67.72" width="2.20" height="9.28"/>
    <rect x="112" y="61" width="10" height="16"/>
    <rect x="122" y="61" width="10" height="16"/>
    <rect x="135.90" y="61.00" width="2.20" height="16.00"/>
    <rect x="172" y="61" width="10" height="16"/>
    <rect x="182" y="61" width="10" height="16"/>
    <rect x="195.90" y="61.00" width="2.20" height="16.00"/>
    <rect x="222" y="61" width="10" height="16"/>
    <rect x="232" y="61" width="10" height="16"/>
    <rect x="245.90" y="61.00" width="2.20" height="16.00"/>
    <rect x="255.90" y="67.72" width="6.10" height="2.56"/><rect x="255.90" y="61.00" width="2.20" height="9.28"/>
    <rect x="262" y="61" width="10" height="16"/>
    <rect x="272" y="61" width="10" height="16"/>
    <rect x="282.00" y="67.72" width="6.10" height="2.56"/><rect x="285.90" y="67.72" width="2.20" height="9.28"/>
    <rect x="292" y="61" width="10" height="16"/>
    <rect x="302" y="61" width="10" height="16"/>
    <rect x="315.90" y="61.00" width="2.20" height="16.00"/>
    <rect x="342" y="61" width="10" height="16"/>
    <rect x="352" y="61" width="10" height="16"/>
    <rect x="365.90" y="67.72" width="6.10" height="2.56"/><rect x="365.90" y="67.72" width="2.20" height="9.28"/>
    <rect x="372.00" y="67.72" width="10.00" height="2.56"/>
    <rect x="382.00" y="67.72" width="10.00" height="2.56"/>
    <rect x="392.00" y="67.72" width="6.10" height="2.56"/><rect x="395.90" y="61.00" width="2.20" height="9.28"/>
    <rect x="12" y="77" width="10" height="16"/>
    <rect x="22" y="77" width="10" height="16"/>
    <rect x="35.90" y="77.00" width="2.20" height="16.00"/>
    <rect x="62" y="77" width="10" height="16"/>
    <rect x="72" y="77" width="10" height="16"/>
    <rect x="85.90" y="77.00" width="2.20" height="16.00"/>
    <rect x="115.90" y="83.72" width="6.10" height="2.56"/><rect x="115.90" y="77.00" width="2.20" height="9.28"/>
    <rect x="122" y="77" width="10" height="16"/>
    <rect x="132" y="77" width="10" height="16"/>
    <rect x="142" y="77" width="10" height="16"/>
    <rect x="152" y="77" width="10" height="16"/>
    <rect x="162" y="77" width="10" height="16"/>
    <rect x="172" y="77" width="10" height="16"/>
    <rect x="185.90" y="83.72" width="6.10" height="2.56"/><rect x="185.90" y="83.72" width="2.20" height="9.28"/>
    <rect x="192.00" y="83.72" width="6.10" height="2.56"/><rect x="195.90" y="77.00" width="2.20" height="9.28"/>
    <rect x="222" y="77" width="10" height="16"/>
    <rect x="232" y="77" width="10" height="16"/>
    <rect x="245.90" y="77.00" width="2.20" height="16.00"/>
    <rect x="265.90" y="83.72" width="6.10" height="2.56"/><rect x="265.90" y="77.00" width="2.20" height="9.28"/>
    <rect x="272" y="77" width="10" height="16"/>
    <rect x="282" y="77" width="10" height="16"/>
    <rect x="292" y="77" width="10" height="16"/>
    <rect x="302" y="77" width="10" height="16"/>
    <rect x="315.90" y="77.00" width="2.20" height="16.00"/>
    <rect x="342" y="77" width="10" height="16"/>
    <rect x="352" y="77" width="10" height="16"/>
    <rect x="362" y="77" width="10" height="16"/>
    <rect x="372" y="77" width="10" height="16"/>
    <rect x="382" y="77" width="10" height="16"/>
    <rect x="392" y="77" width="10" height="16"/>
    <rect x="402" y="77" width="10" height="16"/>
    <rect x="412.00" y="83.72" width="6.10" height="2.56"/><rect x="415.90" y="83.72" width="2.20" height="9.28"/>
    <rect x="15.90" y="99.72" width="6.10" height="2.56"/><rect x="15.90" y="93.00" width="2.20" height="9.28"/>
    <rect x="22.00" y="99.72" width="10.00" height="2.56"/>
    <rect x="32.00" y="99.72" width="6.10" height="2.56"/><rect x="35.90" y="93.00" width="2.20" height="9.28"/>
    <rect x="65.90" y="99.72" width="6.10" height="2.56"/><rect x="65.90" y="93.00" width="2.20" height="9.28"/>
    <rect x="72.00" y="99.72" width="10.00" height="2.56"/>
    <rect x="82.00" y="99.72" width="6.10" height="2.56"/><rect x="85.90" y="93.00" width="2.20" height="9.28"/>
    <rect x="125.90" y="99.72" width="6.10" height="2.56"/><rect x="125.90" y="93.00" width="2.20" height="9.28"/>
    <rect x="132.00" y="99.72" width="10.00" height="2.56"/>
    <rect x="142.00" y="99.72" width="10.00" height="2.56"/>
    <rect x="152.00" y="99.72" width="10.00" height="2.56"/>
    <rect x="162.00" y="99.72" width="10.00" height="2.56"/>
    <rect x="172.00" y="99.72" width="10.00" height="2.56"/>
    <rect x="182.00" y="99.72" width="6.10" height="2.56"/><rect x="185.90" y="93.00" width="2.20" height="9.28"/>
    <rect x="225.90" y="99.72" width="6.10" height="2.56"/><rect x="225.90" y="93.00" width="2.20" height="9.28"/>
    <rect x="232.00" y="99.72" width="10.00" height="2.56"/>
    <rect x="242.00" y="99.72" width="6.10" height="2.56"/><rect x="245.90" y="93.00" width="2.20" height="9.28"/>
    <rect x="275.90" y="99.72" width="6.10" height="2.56"/><rect x="275.90" y="93.00" width="2.20" height="9.28"/>
    <rect x="282.00" y="99.72" width="10.00" height="2.56"/>
    <rect x="292.00" y="99.72" width="10.00" height="2.56"/>
    <rect x="302.00" y="99.72" width="10.00" height="2.56"/>
    <rect x="312.00" y="99.72" width="6.10" height="2.56"/><rect x="315.90" y="93.00" width="2.20" height="9.28"/>
    <rect x="345.90" y="99.72" width="6.10" height="2.56"/><rect x="345.90" y="93.00" width="2.20" height="9.28"/>
    <rect x="352.00" y="99.72" width="10.00" height="2.56"/>
    <rect x="362.00" y="99.72" width="10.00" height="2.56"/>
    <rect x="372.00" y="99.72" width="10.00" height="2.56"/>
    <rect x="382.00" y="99.72" width="10.00" height="2.56"/>
    <rect x="392.00" y="99.72" width="10.00" height="2.56"/>
    <rect x="402.00" y="99.72" width="10.00" height="2.56"/>
    <rect x="412.00" y="99.72" width="6.10" height="2.56"/><rect x="415.90" y="93.00" width="2.20" height="9.28"/>
  </g>
</svg>
